REM DIRINDEX 1\2\6,1\2\7,1\2\8,1\2\9,1\3\10,1\3\11,1\4\12,1\4\13,1\4\14,1\5\15,1\5\16,1\5\17
REM DIRNAME cjc020,folder01,folder02,folder03,folder04,folder05,folder06,folder07,folder08,folder09,folder10,folder11,folder12,folder13,folder14,folder15,folder16
TITLE ""
FILE "1900_3_094 sec16_1558_1576.mp3" MP3
  TRACK 01 AUDIO
    TITLE "0:"
    INDEX 01 00:00:00
  TRACK 02 AUDIO
    TITLE "17:cjc020_9099"
    INDEX 01 00:00:15
  TRACK 03 AUDIO
    TITLE "0:"
    INDEX 01 00:01:30
  TRACK 04 AUDIO
    TITLE "16:cjc020_9100"
    INDEX 01 00:01:32
  TRACK 05 AUDIO
    TITLE "0:"
    INDEX 01 00:02:51
  TRACK 06 AUDIO
    TITLE "17:cjc020_9101"
    INDEX 01 00:03:31
  TRACK 07 AUDIO
    TITLE "0:"
    INDEX 01 00:04:36
  TRACK 08 AUDIO
    TITLE "16:cjc020_9102"
    INDEX 01 00:04:42
  TRACK 09 AUDIO
    TITLE "0:"
    INDEX 01 00:05:69
  TRACK 10 AUDIO
    TITLE "17:cjc020_9103"
    INDEX 01 00:06:51
  TRACK 11 AUDIO
    TITLE "0:"
    INDEX 01 00:09:30
  TRACK 12 AUDIO
    TITLE "16:cjc020_9104"
    INDEX 01 00:09:36
  TRACK 13 AUDIO
    TITLE "0:"
    INDEX 01 00:10:66
  TRACK 14 AUDIO
    TITLE "17:cjc020_9105"
    INDEX 01 00:11:44
  TRACK 15 AUDIO
    TITLE "0:"
    INDEX 01 00:12:52
  TRACK 16 AUDIO
    TITLE "16:cjc020_9106"
    INDEX 01 00:12:56
  TRACK 17 AUDIO
    TITLE "0:"
    INDEX 01 00:13:55
  TRACK 18 AUDIO
    TITLE "17:cjc020_9107"
    INDEX 01 00:14:37
  TRACK 19 AUDIO
    TITLE "0:"
    INDEX 01 00:16:51
  TRACK 20 AUDIO
    TITLE "16:cjc020_9108"
    INDEX 01 00:16:53
  TRACK 21 AUDIO
    TITLE "0:"
    INDEX 01 00:17:53
  TRACK 22 AUDIO
    TITLE "17:cjc020_9109"
    INDEX 01 00:18:29
  TRACK 23 AUDIO
    TITLE "0:"
    INDEX 01 00:20:73
  TRACK 24 AUDIO
    TITLE "16:cjc020_9110"
    INDEX 01 00:21:00
  TRACK 25 AUDIO
    TITLE "0:"
    INDEX 01 00:22:34
  TRACK 26 AUDIO
    TITLE "17:cjc020_9111"
    INDEX 01 00:23:12
  TRACK 27 AUDIO
    TITLE "0:"
    INDEX 01 00:24:22
  TRACK 28 AUDIO
    TITLE "16:cjc020_9112"
    INDEX 01 00:24:25
  TRACK 29 AUDIO
    TITLE "0:"
    INDEX 01 00:25:33
  TRACK 30 AUDIO
    TITLE "17:cjc020_9113"
    INDEX 01 00:26:15
  TRACK 31 AUDIO
    TITLE "0:"
    INDEX 01 00:27:16
  TRACK 32 AUDIO
    TITLE "16:cjc020_9114"
    INDEX 01 00:27:20
  TRACK 33 AUDIO
    TITLE "0:"
    INDEX 01 00:28:31
  TRACK 34 AUDIO
    TITLE "17:cjc020_9115"
    INDEX 01 00:29:13
  TRACK 35 AUDIO
    TITLE "0:"
    INDEX 01 00:31:65
  TRACK 36 AUDIO
    TITLE "16:cjc020_9116"
    INDEX 01 00:31:69
  TRACK 37 AUDIO
    TITLE "0:"
    INDEX 01 00:33:15
  TRACK 38 AUDIO
    TITLE "17:cjc020_9117"
    INDEX 01 00:33:68
  TRACK 39 AUDIO
    TITLE "0:"
    INDEX 01 00:35:04
  TRACK 40 AUDIO
    TITLE "16:cjc020_9118"
    INDEX 01 00:35:10
  TRACK 41 AUDIO
    TITLE "0:"
    INDEX 01 00:36:33
  TRACK 42 AUDIO
    TITLE "17:cjc020_9119"
    INDEX 01 00:37:12
  TRACK 43 AUDIO
    TITLE "0:"
    INDEX 01 00:38:49
  TRACK 44 AUDIO
    TITLE "16:cjc020_9120"
    INDEX 01 00:38:55
  TRACK 45 AUDIO
    TITLE "0:"
    INDEX 01 00:40:03
  TRACK 46 AUDIO
    TITLE "17:cjc020_9121"
    INDEX 01 00:40:58
  TRACK 47 AUDIO
    TITLE "0:"
    INDEX 01 00:41:67
  TRACK 48 AUDIO
    TITLE "16:cjc020_9122"
    INDEX 01 00:41:73
  TRACK 49 AUDIO
    TITLE "0:"
    INDEX 01 00:43:21
  TRACK 50 AUDIO
    TITLE "17:cjc020_9123"
    INDEX 01 00:44:03
  TRACK 51 AUDIO
    TITLE "0:"
    INDEX 01 00:45:04
  TRACK 52 AUDIO
    TITLE "16:cjc020_9124"
    INDEX 01 00:45:12
  TRACK 53 AUDIO
    TITLE "0:"
    INDEX 01 00:46:06
  TRACK 54 AUDIO
    TITLE "17:cjc020_9125"
    INDEX 01 00:46:62
  TRACK 55 AUDIO
    TITLE "0:"
    INDEX 01 00:49:18
  TRACK 56 AUDIO
    TITLE "16:cjc020_9126"
    INDEX 01 00:49:23
  TRACK 57 AUDIO
    TITLE "0:"
    INDEX 01 00:50:39
  TRACK 58 AUDIO
    TITLE "17:cjc020_9127"
    INDEX 01 00:51:22
  TRACK 59 AUDIO
    TITLE "0:"
    INDEX 01 00:52:32
  TRACK 60 AUDIO
    TITLE "16:cjc020_9128"
    INDEX 01 00:52:36
  TRACK 61 AUDIO
    TITLE "0:"
    INDEX 01 00:53:57
  TRACK 62 AUDIO
    TITLE "17:cjc020_9129"
    INDEX 01 00:54:27
  TRACK 63 AUDIO
    TITLE "0:"
    INDEX 01 00:55:46
  TRACK 64 AUDIO
    TITLE "16:cjc020_9130"
    INDEX 01 00:55:51
  TRACK 65 AUDIO
    TITLE "0:"
    INDEX 01 00:56:57
  TRACK 66 AUDIO
    TITLE "17:cjc020_9131"
    INDEX 01 00:57:43
  TRACK 67 AUDIO
    TITLE "0:"
    INDEX 01 00:59:67
  TRACK 68 AUDIO
    TITLE "16:cjc020_9132"
    INDEX 01 00:59:71
  TRACK 69 AUDIO
    TITLE "0:"
    INDEX 01 01:01:03
  TRACK 70 AUDIO
    TITLE "17:cjc020_9133"
    INDEX 01 01:01:58
  TRACK 71 AUDIO
    TITLE "0:"
    INDEX 01 01:03:00
  TRACK 72 AUDIO
    TITLE "16:cjc020_9134"
    INDEX 01 01:03:06
  TRACK 73 AUDIO
    TITLE "0:"
    INDEX 01 01:04:09
  TRACK 74 AUDIO
    TITLE "17:cjc020_9135"
    INDEX 01 01:04:64
  TRACK 75 AUDIO
    TITLE "0:"
    INDEX 01 01:05:69
  TRACK 76 AUDIO
    TITLE "16:cjc020_9136"
    INDEX 01 01:06:00
  TRACK 77 AUDIO
    TITLE "0:"
    INDEX 01 01:07:17
